<svg xmlns="http://www.w3.org/2000/svg" width="21" height="21" viewBox="0 0 21 21" fill="none">
  <g clip-path="url(#clip0_1_931)">
    <path d="M10.3393 6.98277C8.52841 6.98277 7.05061 8.46056 7.05061 10.2714C7.05061 12.0823 8.52841 13.5601 10.3393 13.5601C12.1501 13.5601 13.6279 12.0823 13.6279 10.2714C13.6279 8.46056 12.1501 6.98277 10.3393 6.98277ZM20.2027 10.2714C20.2027 8.90958 20.2151 7.56007 20.1386 6.2007C20.0621 4.62175 19.702 3.22044 18.5473 2.06583C17.3903 0.908756 15.9915 0.551027 14.4125 0.474546C13.0506 0.398066 11.7011 0.410402 10.3417 0.410402C8.97989 0.410402 7.63038 0.398066 6.27101 0.474546C4.69206 0.551027 3.29075 0.911224 2.13614 2.06583C0.97907 3.2229 0.621339 4.62175 0.544859 6.2007C0.468379 7.56254 0.480714 8.91205 0.480714 10.2714C0.480714 11.6308 0.468379 12.9827 0.544859 14.3422C0.621339 15.9211 0.981536 17.3224 2.13614 18.477C3.29321 19.6341 4.69206 19.9918 6.27101 20.0683C7.63285 20.1448 8.98236 20.1324 10.3417 20.1324C11.7036 20.1324 13.053 20.1448 14.4125 20.0683C15.9915 19.9918 17.3927 19.6317 18.5473 18.477C19.7044 17.32 20.0621 15.9211 20.1386 14.3422C20.2176 12.9827 20.2027 11.6332 20.2027 10.2714ZM10.3393 15.3315C7.53911 15.3315 5.27923 13.0716 5.27923 10.2714C5.27923 7.47126 7.53911 5.21138 10.3393 5.21138C13.1395 5.21138 15.3993 7.47126 15.3993 10.2714C15.3993 13.0716 13.1395 15.3315 10.3393 15.3315ZM15.6065 6.1859C14.9527 6.1859 14.4248 5.65793 14.4248 5.00415C14.4248 4.35037 14.9527 3.8224 15.6065 3.8224C16.2603 3.8224 16.7883 4.35037 16.7883 5.00415C16.7885 5.15939 16.7581 5.31315 16.6987 5.45661C16.6395 5.60008 16.5524 5.73044 16.4426 5.8402C16.3328 5.94998 16.2025 6.03701 16.059 6.09634C15.9156 6.15566 15.7618 6.18609 15.6065 6.1859Z" fill="white"/>
  </g>
  <defs>
    <clipPath id="clip0_1_931">
      <rect width="20" height="20" fill="white" transform="translate(0.47998 0.409668)"/>
    </clipPath>
  </defs>
</svg>