<svg xmlns="http://www.w3.org/2000/svg" width="21" height="21" viewBox="0 0 21 21" fill="none">
  <g clip-path="url(#clip0_1_926)">
    <path d="M18.2578 0.409668C18.8471 0.409668 19.4123 0.643795 19.8291 1.06054C20.2459 1.47729 20.48 2.04252 20.48 2.63189V18.1874C20.48 18.7768 20.2459 19.342 19.8291 19.7588C19.4123 20.1756 18.8471 20.4097 18.2578 20.4097H2.7022C2.11284 20.4097 1.5476 20.1756 1.13085 19.7588C0.714107 19.342 0.47998 18.7768 0.47998 18.1874V2.63189C0.47998 2.04252 0.714107 1.47729 1.13085 1.06054C1.5476 0.643795 2.11284 0.409668 2.7022 0.409668H18.2578ZM17.7022 17.6319V11.743C17.7022 10.7823 17.3205 9.861 16.6413 9.1817C15.962 8.5024 15.0406 8.12078 14.08 8.12078C13.1355 8.12078 12.0355 8.69856 11.5022 9.56522V8.33189H8.4022V17.6319H11.5022V12.1541C11.5022 11.2986 12.1911 10.5986 13.0466 10.5986C13.4592 10.5986 13.8549 10.7624 14.1465 11.0542C14.4383 11.3459 14.6022 11.7416 14.6022 12.1541V17.6319H17.7022ZM4.79109 6.58745C5.28616 6.58745 5.76096 6.39078 6.11103 6.04071C6.46109 5.69065 6.65776 5.21585 6.65776 4.72078C6.65776 3.68745 5.82443 2.843 4.79109 2.843C4.29307 2.843 3.81546 3.04083 3.4633 3.39299C3.11115 3.74515 2.91331 4.22276 2.91331 4.72078C2.91331 5.75411 3.75776 6.58745 4.79109 6.58745ZM6.33554 17.6319V8.33189H3.25776V17.6319H6.33554Z" fill="white"/>
  </g>
  <defs>
    <clipPath id="clip0_1_926">
      <rect width="20" height="20" fill="white" transform="translate(0.47998 0.409668)"/>
    </clipPath>
  </defs>
</svg>