<svg
  xmlns="http://www.w3.org/2000/svg"
  width="27"
  height="27"
  viewBox="0 0 27 27"
  fill="none"
>
  <g>
    <!-- Top Dash (same thickness as original, just scaled in width) -->
    <path
      d="M3.5 8.3831C3.02482 8.3831 2.56911 8.19436 2.2331 7.85835C1.8971 7.52235 1.70834 7.06664 1.70834 6.59146C1.70834 6.11628 1.8971 5.66057 2.2331 5.32457C2.56911 4.98857 3.02482 4.7998 3.5 4.7998H23.5C23.9752 4.7998 24.4309 4.98857 24.7669 5.32457C25.1029 5.66057 25.2917 6.11628 25.2917 6.59146C25.2917 7.06664 25.1029 7.52235 24.7669 7.85835C24.4309 8.19436 23.9752 8.3831 23.5 8.3831H3.5Z"
      fill="#2da7ff"
    />
    <!-- Bottom Dash (identical, just vertically shifted) -->
    <path
      d="M3.5 18.3831C3.02482 18.3831 2.56911 18.1944 2.2331 17.8584C1.8971 17.5224 1.70834 17.0666 1.70834 16.5915C1.70834 16.1163 1.8971 15.6606 2.2331 15.3246C2.56911 14.9886 3.02482 14.7998 3.5 14.7998H23.5C23.9752 14.7998 24.4309 14.9886 24.7669 15.3246C25.1029 15.6606 25.2917 16.1163 25.2917 16.5915C25.2917 17.0666 25.1029 17.5224 24.7669 17.8584C24.4309 18.1944 23.9752 18.3831 23.5 18.3831H3.5Z"
      fill="#2da7ff"
    />
  </g>
</svg>
